Coordinates
version=1
nRows=21
nColumns=33
inDegrees=yes

Units are S.I. units (second, meters, Newtons, ...)
Angles are in degrees.

endheader
time	ground_thorax_rot_x	ground_thorax_rot_y	ground_thorax_rot_z	ground_thorax_tx	ground_thorax_ty	ground_thorax_tz	clav_prot_r	clav_elev_r	scapula_abduction_r	scapula_elevation_r	scapula_upward_rot_r	scapula_winging_r	shoulder_elv_r	plane_of_elev_r	axial_rot_r	elbow_flexion_r	pro_sup_r	wrist_flex_r	wrist_dev_r	clav_prot_l	clav_elev_l	scapula_abduction_l	scapula_elevation_l	scapula_upward_rot_l	scapula_winging_l	shoulder_elv_l	plane_of_elev_l	axial_rot_l	elbow_flexion_l	pro_sup_l	wrist_flex_l	wrist_dev_l
     11.28000000	     31.63318390	     20.76138510	     30.19341984	    -78.05560299	    849.98715596	    -47.19408299	     12.16734435	     34.17762402	     26.21311698	     45.00000000	    -45.00000000	   1352.91275238	   1151.54854090	     22.48107022	   -169.58391842	   1438.12537859	    521.87222613	     17.41169568	     13.78238358	     -5.81663460	    -45.00000000	    -42.38961099	     45.00000000	    -45.00000000	   5143.66325702	  -3508.35547853	     17.95393599	   -179.99999979	   2166.55590978	   -157.43605362	      8.93777110	    -19.95847147
     11.29000000	     31.67084965	     20.72545444	     30.19837866	    -77.92550295	    849.52806825	    -47.36164772	     12.35119830	     34.05986381	     26.18603393	     45.00000000	    -45.00000000	   1353.13670063	   1151.57717945	     22.49578540	   -170.23335787	   1438.15990490	    521.70314836	     16.90959218	     14.00306754	     -6.03840321	    -45.00000000	    -42.21279976	     45.00000000	    -45.00000000	   5143.55312430	  -3508.29902390	     18.00441623	   -179.99999979	   2166.58259059	   -157.35187908	      9.10232409	    -19.92544948
     11.30000000	     31.63667412	     20.71306475	     30.26211939	    -77.76017572	    849.08722025	    -47.54508659	     12.24100442	     34.16558188	     26.21663221	     45.00000000	    -45.00000000	   1353.17407415	   1151.52812672	     22.54765737	   -170.28142927	   1438.27403686	    521.50549773	     17.27324808	     13.80182272	     -5.94741604	    -45.00000000	    -42.25363112	     45.00000000	    -45.00000000	   5143.49307608	  -3508.28348261	     17.96161565	   -179.99999979	   2166.44510512	   -157.33156465	      8.87161878	    -19.94910402
     11.31000000	     31.64308803	     20.65912304	     30.31812706	    -77.56353528	    848.68911119	    -47.71827219	     12.34036149	     34.05281071	     26.24621645	     45.00000000	    -45.00000000	   1353.19710065	   1151.52320958	     22.53015474	   -170.39740707	   1438.11767263	    521.49322794	     16.86294807	     13.98081818	     -6.02285395	    -45.00000000	    -42.23691159	     45.00000000	    -45.00000000	   5143.51457403	  -3508.30693274	     17.99042518	   -179.99999979	   2166.27305047	   -157.23022827	      9.07500123	    -20.01105802
     11.32000000	     31.68842692	     20.58588529	     30.25707247	    -77.32869096	    848.33858744	    -47.88443376	     12.30001352	     34.21864272	     26.21778791	     45.00000000	    -45.00000000	   1353.26188939	   1151.43435210	     22.59541092	   -170.58269217	   1438.31450816	    521.26090657	     17.45250894	     13.67553893	     -5.98890483	    -45.00000000	    -42.26854871	     45.00000000	    -45.00000000	   5143.38824521	  -3508.31014346	     17.95493230	   -179.99999979	   2166.21693597	   -157.19125714	      8.75081883	    -20.00712593
     11.33000000	     31.71178702	     20.54776914	     30.28927749	    -77.05119636	    848.04438706	    -48.04539245	     12.35176998	     34.06714900	     26.28782915	     45.00000000	    -45.00000000	   1353.26374017	   1151.41644476	     22.55550651	   -170.73127453	   1438.12193588	    521.31589983	     16.81092859	     13.97968169	     -6.02349579	    -45.00000000	    -42.30039814	     45.00000000	    -45.00000000	   5143.38551491	  -3508.35408653	     17.96276190	   -179.99999979	   2166.03355572	   -157.04928538	      9.07096042	    -20.06867193
     11.34000000	     31.80007889	     20.38707160	     30.19841328	    -76.72763300	    847.80980543	    -48.20411575	     12.37582058	     34.24739476	     26.33065691	     45.00000000	    -45.00000000	   1353.34269218	   1151.33784085	     22.64717828	   -170.96579120	   1438.34076268	    521.06694667	     17.53022523	     13.63119948	     -6.11581838	    -45.00000000	    -42.13665514	     45.00000000	    -45.00000000	   5143.18625460	  -3508.27134182	     17.95460425	   -179.99999979	   2165.96277558	   -157.01424834	      8.69835609	    -20.07658390
     11.35000000	     31.82011330	     20.32876706	     30.23819227	    -76.34917975	    847.62860949	    -48.36677365	     12.43613673	     34.08159573	     26.50043586	     45.00000000	    -45.00000000	   1353.29096555	   1151.34856222	     22.60426093	   -171.11974607	   1438.09340902	    521.17585685	     16.68874967	     14.03202837	     -6.19386658	    -45.00000000	    -42.22774857	     45.00000000	    -45.00000000	   5143.18061838	  -3508.26172851	     17.95811584	   -179.99999979	   2165.69031823	   -156.86056411	      9.10547058	    -20.14772849
     11.36000000	     31.91278309	     20.22936407	     30.11088791	    -75.91027563	    847.49411660	    -48.53666417	     12.41425174	     34.21672929	     26.44147048	     45.00000000	    -45.00000000	   1353.33364897	   1151.32070626	     22.69975314	   -171.46589256	   1438.14165430	    520.95757822	     17.26157067	     13.85105502	     -6.15933329	    -45.00000000	    -42.40102763	     45.00000000	    -45.00000000	   5143.08891221	  -3508.36594199	     17.94385192	   -179.99999979	   2165.46115615	   -156.80802230	      8.78847256	    -20.20813077
     11.37000000	     31.97080266	     20.13485383	     30.10617315	    -75.40632286	    847.39686099	    -48.71522946	     12.50037646	     34.18813477	     26.56314016	     45.00000000	    -45.00000000	   1353.35220878	   1151.29627498	     22.73309134	   -171.75180395	   1438.12768310	    520.87798060	     17.12196028	     13.80958582	     -6.22365845	    -45.00000000	    -42.29152330	     45.00000000	    -45.00000000	   5142.89938994	  -3508.25469679	     17.95914379	   -179.99999979	   2165.35756789	   -156.67997443	      8.91881714	    -20.20468562
     11.38000000	     32.05768379	     19.96730327	     30.04771203	    -74.83573046	    847.32521205	    -48.90088173	     12.51060104	     34.23541683	     26.73776645	     45.00000000	    -45.00000000	   1353.41522257	   1151.26789015	     22.73941243	   -171.99617971	   1438.18723918	    520.76914188	     17.24669244	     13.80708968	     -6.24606937	    -45.00000000	    -42.22147564	     45.00000000	    -45.00000000	   5142.78958335	  -3508.15621785	     17.98336033	   -179.99999979	   2165.13261856	   -156.62091450	      8.81349194	    -20.23755577
     11.39000000	     32.06788702	     19.85860499	     30.08143167	    -74.20020398	    847.26678704	    -49.09002888	     12.59403037	     34.21279936	     26.79488477	     45.00000000	    -45.00000000	   1353.46831088	   1151.23493097	     22.83778608	   -172.24850339	   1438.17170733	    520.70174993	     17.07425089	     13.79021353	     -6.27702698	    -45.00000000	    -42.18009741	     45.00000000	    -45.00000000	   5142.72487914	  -3508.06745161	     17.92778777	   -179.99999979	   2164.77826199	   -156.55084093	      8.93363046	    -20.30498704
     11.40000000	     32.21432387	     19.66766783	     30.02345573	    -73.48665245	    847.20841425	    -49.28285408	     12.58718171	     34.29487476	     27.06000552	     45.00000000	    -45.00000000	   1353.50334831	   1151.21348708	     22.80142532	   -172.53397937	   1438.15193949	    520.56360988	     17.35734440	     13.82101334	     -6.36576908	    -45.00000000	    -41.91586651	     45.00000000	    -45.00000000	   5142.49456323	  -3508.01485777	     18.02023080	   -179.99999979	   2164.77859349	   -156.49749634	      8.79377977	    -20.27327046
     11.41000000	     32.20052948	     19.75076124	     29.92784368	    -72.68522313	    847.13874627	    -49.47795824	     12.65135491	     34.29365309	     26.90128537	     45.00000000	    -45.00000000	   1353.48775874	   1151.19292001	     22.89766713	   -172.85311415	   1438.07576646	    520.46617566	     17.15718140	     13.80853972	     -6.41744270	    -45.00000000	    -42.67873625	     45.00000000	    -45.00000000	   5142.46493971	  -3508.20884246	     18.00639481	   -179.99999979	   2164.40218275	   -156.42960046	      8.93898668	    -20.35431979
     11.42000000	     32.20043672	     19.62709068	     29.90318878	    -71.82636197	    847.05139879	    -49.66536185	     12.58160781	     34.30858289	     26.89587017	     45.00000000	    -44.96848507	   1353.61936062	   1151.17291998	     23.01121736	   -173.19671100	   1438.10212804	    520.31783257	     17.18326168	     13.84188369	     -6.19603116	    -45.00000000	    -42.88576089	     45.00000000	    -45.00000000	   5142.39940513	  -3508.20743451	     17.96397389	   -179.99999979	   2164.07949986	   -156.43335477	      8.89995347	    -20.39373158
     11.43000000	     32.28014654	     19.54424363	     29.87201054	    -70.89639068	    846.93857950	    -49.84768380	     12.66388419	     34.31821818	     27.00218728	     45.00000000	    -44.91733695	   1353.64648957	   1151.12667678	     23.03027066	   -173.43728977	   1438.07454545	    520.18861305	     17.17076783	     13.86101848	     -6.32692085	    -45.00000000	    -42.88950745	     45.00000000	    -45.00000000	   5142.20956455	  -3508.20428209	     17.96343788	   -179.99999979	   2163.85624536	   -156.45105149	      8.98732622	    -20.41580726
     11.44000000	     32.33081761	     19.45457628	     29.86245275	    -69.89894048	    846.79668501	    -50.02418563	     12.69620056	     34.33469240	     27.12572229	     45.00000000	    -44.92003842	   1353.68310516	   1151.10615781	     23.05064313	   -173.69040115	   1438.05240365	    520.04340476	     17.16775804	     13.86917456	     -6.36958992	    -45.00000000	    -42.93372501	     45.00000000	    -45.00000000	   5142.02761445	  -3508.15532944	     17.96453289	   -179.99999979	   2163.67305288	   -156.51781987	      9.06683822	    -20.40963169
     11.45000000	     32.34240493	     19.38708167	     29.85197421	    -68.83807321	    846.62440081	    -50.19481883	     12.68086184	     34.36976071	     27.14670250	     45.00000000	    -44.82740093	   1353.78756678	   1151.06018197	     23.12433942	   -173.98575036	   1438.07150397	    519.86955342	     17.14183097	     13.87020188	     -6.29003449	    -45.00000000	    -43.11766819	     45.00000000	    -45.00000000	   5141.95242211	  -3508.19214962	     17.98854799	   -179.99999979	   2163.41525392	   -156.66009625	      9.11954121	    -20.41229280
     11.46000000	     32.41324179	     19.28253775	     29.81895251	    -67.70443092	    846.42030178	    -50.36198618	     12.73599609	     34.40893924	     27.30442940	     45.00000000	    -44.74153281	   1353.81367462	   1151.02569326	     23.13410745	   -174.18686433	   1438.00272163	    519.70497079	     17.13822819	     13.89964534	     -6.42436660	    -45.00000000	    -43.11908175	     45.00000000	    -45.00000000	   5141.68802056	  -3508.13032269	     17.95413142	   -179.99999979	   2163.25430635	   -156.83546456	      9.25898870	    -20.38859736
     11.47000000	     32.47262734	     19.22393801	     29.77397455	    -66.50414915	    846.18423638	    -50.52496180	     12.72655058	     34.46022141	     27.35758147	     45.00000000	    -44.58014299	   1353.89185885	   1151.01475977	     23.13635728	   -174.41732823	   1438.00034985	    519.51559125	     17.10887044	     13.91627605	     -6.37655109	    -45.00000000	    -43.19712331	     45.00000000	    -45.00000000	   5141.51736835	  -3508.12268211	     18.01929303	   -179.99999979	   2163.07556198	   -157.08212376	      9.35457103	    -20.34565383
     11.48000000	     32.51803463	     19.11625209	     29.73057474	    -65.23648262	    845.91562102	    -50.68375987	     12.73016427	     34.51805034	     27.40656322	     45.00000000	    -44.39024312	   1353.96925385	   1150.97338031	     23.18322788	   -174.64155474	   1437.98752360	    519.30315745	     17.07685314	     13.92952948	     -6.40083954	    -45.00000000	    -43.33000854	     45.00000000	    -45.00000000	   5141.35372214	  -3508.14544538	     18.00522179	   -179.99999979	   2162.83716771	   -157.39606129	      9.46648305	    -20.32332269
